<svg width="64" height="64" viewBox="0 0 64 64" fill="none" xmlns="http://www.w3.org/2000/svg">
  <rect x="1" y="1" width="62" height="62" rx="6" fill="white" stroke="#F97316" stroke-width="2"/>
  <g transform="translate(12 12) scale(1.6666667)">
    <path d="M21 16.5c0 0.38-0.21 0.71-0.53 0.88l-7.9 4.44c-0.16 0.12-0.36 0.18-0.57 0.18s-0.41-0.06-0.57-0.18l-7.9-4.44A0.991 0.991 0 0 1 3 16.5v-9c0-0.38 0.21-0.71 0.53-0.88l7.9-4.44c0.16-0.12 0.36-0.18 0.57 0.18s0.41 0.06 0.57 0.18l7.9 4.44c0.32 0.17 0.53 0.5 0.53 0.88v9z"
          fill="#F97316" 
          stroke="#F97316" 
          stroke-width="0.3"/>
  </g>
</svg> 